<svg width="410" height="99" viewBox="0 0 410 99" fill="none" xmlns="http://www.w3.org/2000/svg">
<path d="M0 10C0 4.47715 4.47715 0 10 0H360C387.614 0 410 22.3858 410 50V89C410 94.5229 405.523 99 400 99H9.99999C4.47714 99 0 94.5229 0 89V10Z" fill="#8E2DE2"/>
<path d="M117.472 59.56H102.88L100.192 67H95.584L107.68 33.736H112.72L124.768 67H120.16L117.472 59.56ZM116.224 56.008L110.176 39.112L104.128 56.008H116.224ZM134.408 45.544C135.272 44.04 136.552 42.792 138.248 41.8C139.976 40.776 141.976 40.264 144.248 40.264C146.584 40.264 148.696 40.824 150.584 41.944C152.504 43.064 154.008 44.648 155.096 46.696C156.184 48.712 156.728 51.064 156.728 53.752C156.728 56.408 156.184 58.776 155.096 60.856C154.008 62.936 152.504 64.552 150.584 65.704C148.696 66.856 146.584 67.432 144.248 67.432C142.008 67.432 140.024 66.936 138.296 65.944C136.6 64.92 135.304 63.656 134.408 62.152V79.48H130.04V40.696H134.408V45.544ZM152.264 53.752C152.264 51.768 151.864 50.04 151.064 48.568C150.264 47.096 149.176 45.976 147.8 45.208C146.456 44.44 144.968 44.056 143.336 44.056C141.736 44.056 140.248 44.456 138.872 45.256C137.528 46.024 136.44 47.16 135.608 48.664C134.808 50.136 134.408 51.848 134.408 53.8C134.408 55.784 134.808 57.528 135.608 59.032C136.44 60.504 137.528 61.64 138.872 62.44C140.248 63.208 141.736 63.592 143.336 63.592C144.968 63.592 146.456 63.208 147.8 62.44C149.176 61.64 150.264 60.504 151.064 59.032C151.864 57.528 152.264 55.768 152.264 53.752ZM173.949 67.432C171.485 67.432 169.245 66.872 167.229 65.752C165.245 64.632 163.677 63.048 162.525 61C161.405 58.92 160.845 56.52 160.845 53.8C160.845 51.112 161.421 48.744 162.573 46.696C163.757 44.616 165.357 43.032 167.373 41.944C169.389 40.824 171.645 40.264 174.141 40.264C176.637 40.264 178.893 40.824 180.909 41.944C182.925 43.032 184.509 44.6 185.661 46.648C186.845 48.696 187.437 51.08 187.437 53.8C187.437 56.52 186.829 58.92 185.613 61C184.429 63.048 182.813 64.632 180.765 65.752C178.717 66.872 176.445 67.432 173.949 67.432ZM173.949 63.592C175.517 63.592 176.989 63.224 178.365 62.488C179.741 61.752 180.845 60.648 181.677 59.176C182.541 57.704 182.973 55.912 182.973 53.8C182.973 51.688 182.557 49.896 181.725 48.424C180.893 46.952 179.805 45.864 178.461 45.16C177.117 44.424 175.661 44.056 174.093 44.056C172.493 44.056 171.021 44.424 169.677 45.16C168.365 45.864 167.309 46.952 166.509 48.424C165.709 49.896 165.309 51.688 165.309 53.8C165.309 55.944 165.693 57.752 166.461 59.224C167.261 60.696 168.317 61.8 169.629 62.536C170.941 63.24 172.381 63.592 173.949 63.592ZM198.508 44.296V59.8C198.508 61.08 198.78 61.992 199.324 62.536C199.868 63.048 200.812 63.304 202.156 63.304H205.372V67H201.436C199.004 67 197.18 66.44 195.964 65.32C194.748 64.2 194.14 62.36 194.14 59.8V44.296H190.732V40.696H194.14V34.072H198.508V40.696H205.372V44.296H198.508ZM223.721 40.216C225.705 40.216 227.497 40.648 229.097 41.512C230.697 42.344 231.945 43.608 232.841 45.304C233.769 47 234.233 49.064 234.233 51.496V67H229.913V52.12C229.913 49.496 229.257 47.496 227.945 46.12C226.633 44.712 224.841 44.008 222.569 44.008C220.265 44.008 218.425 44.728 217.049 46.168C215.705 47.608 215.033 49.704 215.033 52.456V67H210.665V31.48H215.033V44.44C215.897 43.096 217.081 42.056 218.585 41.32C220.121 40.584 221.833 40.216 223.721 40.216ZM265.368 52.84C265.368 53.672 265.32 54.552 265.224 55.48H244.2C244.36 58.072 245.24 60.104 246.84 61.576C248.472 63.016 250.44 63.736 252.744 63.736C254.632 63.736 256.2 63.304 257.448 62.44C258.728 61.544 259.624 60.36 260.136 58.888H264.84C264.136 61.416 262.728 63.48 260.616 65.08C258.504 66.648 255.88 67.432 252.744 67.432C250.248 67.432 248.008 66.872 246.024 65.752C244.072 64.632 242.536 63.048 241.416 61C240.296 58.92 239.736 56.52 239.736 53.8C239.736 51.08 240.28 48.696 241.368 46.648C242.456 44.6 243.976 43.032 245.928 41.944C247.912 40.824 250.184 40.264 252.744 40.264C255.24 40.264 257.448 40.808 259.368 41.896C261.288 42.984 262.76 44.488 263.784 46.408C264.84 48.296 265.368 50.44 265.368 52.84ZM260.856 51.928C260.856 50.264 260.488 48.84 259.752 47.656C259.016 46.44 258.008 45.528 256.728 44.92C255.48 44.28 254.088 43.96 252.552 43.96C250.344 43.96 248.456 44.664 246.888 46.072C245.352 47.48 244.472 49.432 244.248 51.928H260.856ZM282.606 67.432C280.142 67.432 277.902 66.872 275.886 65.752C273.902 64.632 272.334 63.048 271.182 61C270.062 58.92 269.502 56.52 269.502 53.8C269.502 51.112 270.078 48.744 271.23 46.696C272.414 44.616 274.014 43.032 276.03 41.944C278.046 40.824 280.302 40.264 282.798 40.264C285.294 40.264 287.55 40.824 289.566 41.944C291.582 43.032 293.166 44.6 294.318 46.648C295.502 48.696 296.094 51.08 296.094 53.8C296.094 56.52 295.486 58.92 294.27 61C293.086 63.048 291.47 64.632 289.422 65.752C287.374 66.872 285.102 67.432 282.606 67.432ZM282.606 63.592C284.174 63.592 285.646 63.224 287.022 62.488C288.398 61.752 289.502 60.648 290.334 59.176C291.198 57.704 291.63 55.912 291.63 53.8C291.63 51.688 291.214 49.896 290.382 48.424C289.55 46.952 288.462 45.864 287.118 45.16C285.774 44.424 284.318 44.056 282.75 44.056C281.15 44.056 279.678 44.424 278.334 45.16C277.022 45.864 275.966 46.952 275.166 48.424C274.366 49.896 273.966 51.688 273.966 53.8C273.966 55.944 274.35 57.752 275.118 59.224C275.918 60.696 276.974 61.8 278.286 62.536C279.598 63.24 281.038 63.592 282.606 63.592ZM311.149 67.432C309.133 67.432 307.325 67.096 305.725 66.424C304.125 65.72 302.861 64.76 301.933 63.544C301.005 62.296 300.493 60.872 300.397 59.272H304.909C305.037 60.584 305.645 61.656 306.733 62.488C307.853 63.32 309.309 63.736 311.101 63.736C312.765 63.736 314.077 63.368 315.037 62.632C315.997 61.896 316.477 60.968 316.477 59.848C316.477 58.696 315.965 57.848 314.941 57.304C313.917 56.728 312.333 56.168 310.189 55.624C308.237 55.112 306.637 54.6 305.389 54.088C304.173 53.544 303.117 52.76 302.221 51.736C301.357 50.68 300.925 49.304 300.925 47.608C300.925 46.264 301.325 45.032 302.125 43.912C302.925 42.792 304.061 41.912 305.533 41.272C307.005 40.6 308.685 40.264 310.573 40.264C313.485 40.264 315.837 41 317.629 42.472C319.421 43.944 320.381 45.96 320.509 48.52H316.141C316.045 47.144 315.485 46.04 314.461 45.208C313.469 44.376 312.125 43.96 310.429 43.96C308.861 43.96 307.613 44.296 306.685 44.968C305.757 45.64 305.293 46.52 305.293 47.608C305.293 48.472 305.565 49.192 306.109 49.768C306.685 50.312 307.389 50.76 308.221 51.112C309.085 51.432 310.269 51.8 311.773 52.216C313.661 52.728 315.197 53.24 316.381 53.752C317.565 54.232 318.573 54.968 319.405 55.96C320.269 56.952 320.717 58.248 320.749 59.848C320.749 61.288 320.349 62.584 319.549 63.736C318.749 64.888 317.613 65.8 316.141 66.472C314.701 67.112 313.037 67.432 311.149 67.432ZM329.171 36.424C328.339 36.424 327.635 36.136 327.059 35.56C326.483 34.984 326.195 34.28 326.195 33.448C326.195 32.616 326.483 31.912 327.059 31.336C327.635 30.76 328.339 30.472 329.171 30.472C329.971 30.472 330.643 30.76 331.187 31.336C331.763 31.912 332.051 32.616 332.051 33.448C332.051 34.28 331.763 34.984 331.187 35.56C330.643 36.136 329.971 36.424 329.171 36.424ZM331.283 40.696V67H326.915V40.696H331.283ZM348.039 67.432C346.023 67.432 344.215 67.096 342.615 66.424C341.015 65.72 339.751 64.76 338.823 63.544C337.895 62.296 337.383 60.872 337.287 59.272H341.799C341.927 60.584 342.535 61.656 343.623 62.488C344.743 63.32 346.199 63.736 347.991 63.736C349.655 63.736 350.967 63.368 351.927 62.632C352.887 61.896 353.367 60.968 353.367 59.848C353.367 58.696 352.855 57.848 351.831 57.304C350.807 56.728 349.223 56.168 347.079 55.624C345.127 55.112 343.527 54.6 342.279 54.088C341.063 53.544 340.007 52.76 339.111 51.736C338.247 50.68 337.815 49.304 337.815 47.608C337.815 46.264 338.215 45.032 339.015 43.912C339.815 42.792 340.951 41.912 342.423 41.272C343.895 40.6 345.575 40.264 347.463 40.264C350.375 40.264 352.727 41 354.519 42.472C356.311 43.944 357.271 45.96 357.399 48.52H353.031C352.935 47.144 352.375 46.04 351.351 45.208C350.359 44.376 349.015 43.96 347.319 43.96C345.751 43.96 344.503 44.296 343.575 44.968C342.647 45.64 342.183 46.52 342.183 47.608C342.183 48.472 342.455 49.192 342.999 49.768C343.575 50.312 344.279 50.76 345.111 51.112C345.975 51.432 347.159 51.8 348.663 52.216C350.551 52.728 352.087 53.24 353.271 53.752C354.455 54.232 355.463 54.968 356.295 55.96C357.159 56.952 357.607 58.248 357.639 59.848C357.639 61.288 357.239 62.584 356.439 63.736C355.639 64.888 354.503 65.8 353.031 66.472C351.591 67.112 349.927 67.432 348.039 67.432Z" fill="white"/>
<path d="M26 67V36.0041C36.3333 35.8196 57 41.7605 57 67H26Z" fill="white"/>
</svg>
