<svg width="239" height="57" viewBox="0 0 239 57" fill="none" xmlns="http://www.w3.org/2000/svg">
<rect width="239" height="57" rx="28.5" fill="#555BFF"/>
<circle cx="42" cy="29" r="13" fill="white"/>
<path d="M94.2908 17.696V20.064H84.5948V27.584H92.4668V29.952H84.5948V40H81.6828V17.696H94.2908ZM100.72 16.32V40H97.8078V16.32H100.72ZM121.235 22.464V40H118.323V37.408C117.768 38.304 116.989 39.008 115.987 39.52C115.005 40.0107 113.917 40.256 112.723 40.256C111.357 40.256 110.131 39.9787 109.043 39.424C107.955 38.848 107.091 37.9947 106.451 36.864C105.832 35.7333 105.523 34.3573 105.523 32.736V22.464H108.403V32.352C108.403 34.08 108.84 35.4133 109.715 36.352C110.589 37.2693 111.784 37.728 113.299 37.728C114.856 37.728 116.083 37.248 116.979 36.288C117.875 35.328 118.323 33.9307 118.323 32.096V22.464H121.235ZM129.704 24.864V35.2C129.704 36.0533 129.885 36.6613 130.248 37.024C130.61 37.3653 131.24 37.536 132.135 37.536H134.28V40H131.656C130.034 40 128.818 39.6267 128.008 38.88C127.197 38.1333 126.792 36.9067 126.792 35.2V24.864H124.52V22.464H126.792V18.048H129.704V22.464H134.28V24.864H129.704ZM141.36 24.864V35.2C141.36 36.0533 141.541 36.6613 141.904 37.024C142.266 37.3653 142.896 37.536 143.792 37.536H145.936V40H143.312C141.69 40 140.474 39.6267 139.664 38.88C138.853 38.1333 138.448 36.9067 138.448 35.2V24.864H136.176V22.464H138.448V18.048H141.36V22.464H145.936V24.864H141.36ZM165.464 30.56C165.464 31.1147 165.432 31.7013 165.368 32.32H151.352C151.459 34.048 152.045 35.4027 153.112 36.384C154.2 37.344 155.512 37.824 157.048 37.824C158.307 37.824 159.352 37.536 160.184 36.96C161.037 36.3627 161.635 35.5733 161.976 34.592H165.112C164.643 36.2773 163.704 37.6533 162.296 38.72C160.888 39.7653 159.139 40.288 157.048 40.288C155.384 40.288 153.891 39.9147 152.568 39.168C151.267 38.4213 150.243 37.3653 149.496 36C148.749 34.6133 148.376 33.0133 148.376 31.2C148.376 29.3867 148.739 27.7973 149.464 26.432C150.189 25.0667 151.203 24.0213 152.504 23.296C153.827 22.5493 155.341 22.176 157.048 22.176C158.712 22.176 160.184 22.5387 161.464 23.264C162.744 23.9893 163.725 24.992 164.408 26.272C165.112 27.5307 165.464 28.96 165.464 30.56ZM162.456 29.952C162.456 28.8427 162.211 27.8933 161.72 27.104C161.229 26.2933 160.557 25.6853 159.704 25.28C158.872 24.8533 157.944 24.64 156.92 24.64C155.448 24.64 154.189 25.1093 153.144 26.048C152.12 26.9867 151.533 28.288 151.384 29.952H162.456ZM172.22 25.312C172.732 24.3093 173.457 23.5307 174.396 22.976C175.356 22.4213 176.518 22.144 177.884 22.144V25.152H177.116C173.852 25.152 172.22 26.9227 172.22 30.464V40H169.308V22.464H172.22V25.312Z" fill="white"/>
</svg>
