<svg width="628" height="105" viewBox="0 0 628 105" fill="none" xmlns="http://www.w3.org/2000/svg">
<rect width="628" height="105" rx="10" fill="#8E2DE2"/>
<path d="M186.472 36.544V70H182.104V54.832H165.064V70H160.696V36.544H165.064V51.232H182.104V36.544H186.472ZM192.298 56.752C192.298 54.064 192.842 51.712 193.93 49.696C195.018 47.648 196.506 46.064 198.394 44.944C200.314 43.824 202.442 43.264 204.778 43.264C207.082 43.264 209.082 43.76 210.778 44.752C212.474 45.744 213.738 46.992 214.57 48.496V43.696H218.986V70H214.57V65.104C213.706 66.64 212.41 67.92 210.682 68.944C208.986 69.936 207.002 70.432 204.73 70.432C202.394 70.432 200.282 69.856 198.394 68.704C196.506 67.552 195.018 65.936 193.93 63.856C192.842 61.776 192.298 59.408 192.298 56.752ZM214.57 56.8C214.57 54.816 214.17 53.088 213.37 51.616C212.57 50.144 211.482 49.024 210.106 48.256C208.762 47.456 207.274 47.056 205.642 47.056C204.01 47.056 202.522 47.44 201.178 48.208C199.834 48.976 198.762 50.096 197.962 51.568C197.162 53.04 196.762 54.768 196.762 56.752C196.762 58.768 197.162 60.528 197.962 62.032C198.762 63.504 199.834 64.64 201.178 65.44C202.522 66.208 204.01 66.592 205.642 66.592C207.274 66.592 208.762 66.208 210.106 65.44C211.482 64.64 212.57 63.504 213.37 62.032C214.17 60.528 214.57 58.784 214.57 56.8ZM224.736 56.8C224.736 54.08 225.28 51.712 226.368 49.696C227.456 47.648 228.96 46.064 230.88 44.944C232.832 43.824 235.056 43.264 237.552 43.264C240.784 43.264 243.44 44.048 245.52 45.616C247.632 47.184 249.024 49.36 249.696 52.144H244.992C244.544 50.544 243.664 49.28 242.352 48.352C241.072 47.424 239.472 46.96 237.552 46.96C235.056 46.96 233.04 47.824 231.504 49.552C229.968 51.248 229.2 53.664 229.2 56.8C229.2 59.968 229.968 62.416 231.504 64.144C233.04 65.872 235.056 66.736 237.552 66.736C239.472 66.736 241.072 66.288 242.352 65.392C243.632 64.496 244.512 63.216 244.992 61.552H249.696C248.992 64.24 247.584 66.4 245.472 68.032C243.36 69.632 240.72 70.432 237.552 70.432C235.056 70.432 232.832 69.872 230.88 68.752C228.96 67.632 227.456 66.048 226.368 64C225.28 61.952 224.736 59.552 224.736 56.8ZM270.212 70L259.892 58.384V70H255.524V34.48H259.892V55.36L270.02 43.696H276.116L263.732 56.8L276.164 70H270.212ZM304.227 55.84C304.227 56.672 304.179 57.552 304.083 58.48H283.059C283.219 61.072 284.099 63.104 285.699 64.576C287.331 66.016 289.299 66.736 291.603 66.736C293.491 66.736 295.059 66.304 296.307 65.44C297.587 64.544 298.483 63.36 298.995 61.888H303.699C302.995 64.416 301.587 66.48 299.475 68.08C297.363 69.648 294.739 70.432 291.603 70.432C289.107 70.432 286.867 69.872 284.883 68.752C282.931 67.632 281.395 66.048 280.275 64C279.155 61.92 278.595 59.52 278.595 56.8C278.595 54.08 279.139 51.696 280.227 49.648C281.315 47.6 282.835 46.032 284.787 44.944C286.771 43.824 289.043 43.264 291.603 43.264C294.099 43.264 296.307 43.808 298.227 44.896C300.147 45.984 301.619 47.488 302.643 49.408C303.699 51.296 304.227 53.44 304.227 55.84ZM299.715 54.928C299.715 53.264 299.347 51.84 298.611 50.656C297.875 49.44 296.867 48.528 295.587 47.92C294.339 47.28 292.947 46.96 291.411 46.96C289.203 46.96 287.315 47.664 285.747 49.072C284.211 50.48 283.331 52.432 283.107 54.928H299.715ZM314.361 47.968C315.129 46.464 316.217 45.296 317.625 44.464C319.065 43.632 320.809 43.216 322.857 43.216V47.728H321.705C316.809 47.728 314.361 50.384 314.361 55.696V70H309.993V43.696H314.361V47.968ZM331.163 66.4H344.075V70H326.171V66.4L338.939 47.248H326.267V43.696H343.979V47.248L331.163 66.4ZM360.351 70.336C358.143 70.336 356.159 69.952 354.399 69.184C352.671 68.384 351.311 67.296 350.319 65.92C349.327 64.512 348.815 62.896 348.783 61.072H353.439C353.599 62.64 354.239 63.968 355.359 65.056C356.511 66.112 358.175 66.64 360.351 66.64C362.431 66.64 364.063 66.128 365.247 65.104C366.463 64.048 367.071 62.704 367.071 61.072C367.071 59.792 366.719 58.752 366.015 57.952C365.311 57.152 364.431 56.544 363.375 56.128C362.319 55.712 360.895 55.264 359.103 54.784C356.895 54.208 355.119 53.632 353.775 53.056C352.463 52.48 351.327 51.584 350.367 50.368C349.439 49.12 348.975 47.456 348.975 45.376C348.975 43.552 349.439 41.936 350.367 40.528C351.295 39.12 352.591 38.032 354.255 37.264C355.951 36.496 357.887 36.112 360.063 36.112C363.199 36.112 365.759 36.896 367.743 38.464C369.759 40.032 370.895 42.112 371.151 44.704H366.351C366.191 43.424 365.519 42.304 364.335 41.344C363.151 40.352 361.583 39.856 359.631 39.856C357.807 39.856 356.319 40.336 355.167 41.296C354.015 42.224 353.439 43.536 353.439 45.232C353.439 46.448 353.775 47.44 354.447 48.208C355.151 48.976 355.999 49.568 356.991 49.984C358.015 50.368 359.439 50.816 361.263 51.328C363.471 51.936 365.247 52.544 366.591 53.152C367.935 53.728 369.087 54.64 370.047 55.888C371.007 57.104 371.487 58.768 371.487 60.88C371.487 62.512 371.055 64.048 370.191 65.488C369.327 66.928 368.047 68.096 366.351 68.992C364.655 69.888 362.655 70.336 360.351 70.336ZM383.243 47.296V62.8C383.243 64.08 383.515 64.992 384.059 65.536C384.603 66.048 385.547 66.304 386.891 66.304H390.107V70H386.171C383.739 70 381.915 69.44 380.699 68.32C379.483 67.2 378.875 65.36 378.875 62.8V47.296H375.467V43.696H378.875V37.072H383.243V43.696H390.107V47.296H383.243ZM399.767 47.968C400.535 46.464 401.623 45.296 403.031 44.464C404.471 43.632 406.215 43.216 408.263 43.216V47.728H407.111C402.215 47.728 399.767 50.384 399.767 55.696V70H395.399V43.696H399.767V47.968ZM437.305 55.84C437.305 56.672 437.257 57.552 437.161 58.48H416.137C416.297 61.072 417.177 63.104 418.777 64.576C420.409 66.016 422.377 66.736 424.681 66.736C426.569 66.736 428.137 66.304 429.385 65.44C430.665 64.544 431.561 63.36 432.073 61.888H436.777C436.073 64.416 434.665 66.48 432.553 68.08C430.441 69.648 427.817 70.432 424.681 70.432C422.185 70.432 419.945 69.872 417.961 68.752C416.009 67.632 414.473 66.048 413.353 64C412.233 61.92 411.673 59.52 411.673 56.8C411.673 54.08 412.217 51.696 413.305 49.648C414.393 47.6 415.913 46.032 417.865 44.944C419.849 43.824 422.121 43.264 424.681 43.264C427.177 43.264 429.385 43.808 431.305 44.896C433.225 45.984 434.697 47.488 435.721 49.408C436.777 51.296 437.305 53.44 437.305 55.84ZM432.793 54.928C432.793 53.264 432.425 51.84 431.689 50.656C430.953 49.44 429.945 48.528 428.665 47.92C427.417 47.28 426.025 46.96 424.489 46.96C422.281 46.96 420.393 47.664 418.825 49.072C417.289 50.48 416.409 52.432 416.185 54.928H432.793ZM467.071 55.84C467.071 56.672 467.023 57.552 466.927 58.48H445.903C446.063 61.072 446.943 63.104 448.543 64.576C450.175 66.016 452.143 66.736 454.447 66.736C456.335 66.736 457.903 66.304 459.151 65.44C460.431 64.544 461.327 63.36 461.839 61.888H466.543C465.839 64.416 464.431 66.48 462.319 68.08C460.207 69.648 457.583 70.432 454.447 70.432C451.951 70.432 449.711 69.872 447.727 68.752C445.775 67.632 444.239 66.048 443.119 64C441.999 61.92 441.439 59.52 441.439 56.8C441.439 54.08 441.983 51.696 443.071 49.648C444.159 47.6 445.679 46.032 447.631 44.944C449.615 43.824 451.887 43.264 454.447 43.264C456.943 43.264 459.151 43.808 461.071 44.896C462.991 45.984 464.463 47.488 465.487 49.408C466.543 51.296 467.071 53.44 467.071 55.84ZM462.559 54.928C462.559 53.264 462.191 51.84 461.455 50.656C460.719 49.44 459.711 48.528 458.431 47.92C457.183 47.28 455.791 46.96 454.255 46.96C452.047 46.96 450.159 47.664 448.591 49.072C447.055 50.48 446.175 52.432 445.951 54.928H462.559ZM478.165 47.296V62.8C478.165 64.08 478.437 64.992 478.981 65.536C479.525 66.048 480.469 66.304 481.813 66.304H485.029V70H481.093C478.661 70 476.837 69.44 475.621 68.32C474.405 67.2 473.797 65.36 473.797 62.8V47.296H470.389V43.696H473.797V37.072H478.165V43.696H485.029V47.296H478.165ZM489.073 66.496C493.137 63.232 496.321 60.56 498.625 58.48C500.929 56.368 502.865 54.176 504.433 51.904C506.033 49.6 506.833 47.344 506.833 45.136C506.833 43.056 506.321 41.424 505.297 40.24C504.305 39.024 502.689 38.416 500.449 38.416C498.273 38.416 496.577 39.104 495.361 40.48C494.177 41.824 493.537 43.632 493.441 45.904H489.217C489.345 42.32 490.433 39.552 492.481 37.6C494.529 35.648 497.169 34.672 500.401 34.672C503.697 34.672 506.305 35.584 508.225 37.408C510.177 39.232 511.153 41.744 511.153 44.944C511.153 47.6 510.353 50.192 508.753 52.72C507.185 55.216 505.393 57.424 503.377 59.344C501.361 61.232 498.785 63.44 495.649 65.968H512.161V69.616H489.073V66.496ZM519.322 70.288C518.49 70.288 517.786 70 517.21 69.424C516.634 68.848 516.346 68.144 516.346 67.312C516.346 66.48 516.634 65.776 517.21 65.2C517.786 64.624 518.49 64.336 519.322 64.336C520.122 64.336 520.794 64.624 521.338 65.2C521.914 65.776 522.202 66.48 522.202 67.312C522.202 68.144 521.914 68.848 521.338 69.424C520.794 70 520.122 70.288 519.322 70.288ZM527.289 52.288C527.289 46.784 528.185 42.496 529.977 39.424C531.769 36.32 534.905 34.768 539.385 34.768C543.833 34.768 546.953 36.32 548.745 39.424C550.536 42.496 551.432 46.784 551.432 52.288C551.432 57.888 550.536 62.24 548.745 65.344C546.953 68.448 543.833 70 539.385 70C534.905 70 531.769 68.448 529.977 65.344C528.185 62.24 527.289 57.888 527.289 52.288ZM547.113 52.288C547.113 49.504 546.921 47.152 546.537 45.232C546.185 43.28 545.433 41.712 544.281 40.528C543.161 39.344 541.529 38.752 539.385 38.752C537.209 38.752 535.545 39.344 534.393 40.528C533.273 41.712 532.521 43.28 532.137 45.232C531.785 47.152 531.609 49.504 531.609 52.288C531.609 55.168 531.785 57.584 532.137 59.536C532.521 61.488 533.273 63.056 534.393 64.24C535.545 65.424 537.209 66.016 539.385 66.016C541.529 66.016 543.161 65.424 544.281 64.24C545.433 63.056 546.185 61.488 546.537 59.536C546.921 57.584 547.113 55.168 547.113 52.288Z" fill="white"/>
<rect x="42" y="29" width="48" height="48" rx="10" fill="white"/>
</svg>
